{"title":"Hunterr 2015 720p DVDRipx264 mHD-AC3 Dolby Digital 5.1[Team Tell","uid":11902789,"size":2358938318,"categoryP":"video","categoryS":"movies_dvdr","magnet":"?xt=urn:btih:dce984c4b9541352dc6b4c2f87b832502d50029d&amp;dn=Hunterr+2015+720p+DVDRipx264+mHD-AC3+Dolby+Digital+5.1%5BTeam+Tell&amp;tr=udp%3A%2F%2Ftracker.openbittorrent.com%3A80&amp;tr=udp%3A%2F%2Fopen.demonii.com%3A1337&amp;tr=udp%3A%2F%2Ftracker.coppersurfer.tk%3A6969&amp;tr=udp%3A%2F%2Fexodus.desync.com%3A6969","seeders":25,"leechers":18,"uploader":"Urmit","files":1,"time":1431344523,"description":"[CENTER][IMG]http://i.imgur.com/60AydG0.png[/IMG]\n\n[COLOR=&quot;Navy&quot;][B][SIZE=&quot;6&quot;]Hunterr 2015 720p DVDRipx264 mHD-AC3 Dolby Digital 5.1[Team Telly][/SIZE][/B][/COLOR]\n\n[img]http://i.imgur.com/BxhNz3o.jpg[/img]\n\n[QUOTE][COLOR=&quot;Indigo&quot;][SIZE=&quot;6&quot;]Snighdho@Telly HQ[/SIZE][/COLOR][/QUOTE]\n\n\n[CODE][B] \nSource : DVD9DDR \nComplete name : Hunterr 2015 720p DVDRipx264 mHD-AC3 Dolby Digital 5.1[Team Telly]\nFormat version : Version 2\nFile size : 2.20 GiB\nDuration : 2h 20mn\nOverall bit rate mode : Variable\nOverall bit rate : 2 240 Kbps\nEncoded date : UTC 2015-05-08 21:49:40\nWriting application : mkvmerge v7.7.0 ('Six Voices') 32bit built on Feb 28 2015 23:23:00\nWriting library : libebml v1.3.1 + libmatroska v1.4.2\n\n\nVideo\nID : 1\nFormat : AVC\nFormat/Info : Advanced Video Codec\nFormat profile : &lt;a class=&quot;__cf_email__&quot; href=&quot;/cdn-cgi/l/email-protection&quot; data-cfemail=&quot;a6eecfc1cee6ea928897&quot;&gt;[email&amp;#160;protected]&lt;/a&gt;&lt;script cf-hash='f9e31' type=&quot;text/javascript&quot;&gt;\n/* &lt;![CDATA[ */!function(){try{var t=&quot;currentScript&quot;in document?document.currentScript:function(){for(var t=document.getElementsByTagName(&quot;script&quot;),e=t.length;e--;)if(t[e].getAttribute(&quot;cf-hash&quot;))return t[e]}();if(t&amp;&amp;t.previousSibling){var e,r,n,i,c=t.previousSibling,a=c.getAttribute(&quot;data-cfemail&quot;);if(a){for(e=&quot;&quot;,r=parseInt(a.substr(0,2),16),n=2;a.length-n;n+=2)i=parseInt(a.substr(n,2),16)^r,e+=String.fromCharCode(i);e=document.createTextNode(e),c.parentNode.replaceChild(e,c)}}}catch(u){}}();/* ]]&gt; */&lt;/script&gt;\nFormat settings, CABAC : Yes\nFormat settings, ReFrames : 5 frames\nCodec ID : V_MPEG4/ISO/AVC\nDuration : 2h 20mn\nBit rate mode : Variable\nBit rate : 1 854 Kbps\nMaximum bit rate : 45.5 Mbps\nWidth : 1 280 pixels\nHeight : 536 pixels\nDisplay aspect ratio : 2.40:1\nFrame rate mode : Constant\nFrame rate : 29.970 fps\nColor space : YUV\nChroma subsampling : 4:2:0\nBit depth : 8 bits\nScan type : Progressive\nBits/(Pixel*Frame) : 0.090\nStream size : 1.78 GiB (81%)\nWriting library : x264 core 146 r2538 121396c\nDefault : Yes\nForced : No\nColor primaries : BT.709\nTransfer characteristics : BT.709\nMatrix coefficients : BT.709\n\nAudio\nID : 2\nFormat : AC-3\nFormat/Info : Audio Coding 3\nMode extension : CM (complete main)\nFormat settings, Endianness : Big\nCodec ID : A_AC3\nDuration : 2h 20mn\nBit rate mode : Constant\nBit rate : 384 Kbps\nChannel(s) : 6 channels\nChannel positions : Front: L C R, Side: L R, LFE\nSampling rate : 48.0 KHz\nBit depth : 16 bits\nCompression mode : Lossy\nStream size : 386 MiB (17%)\nDefault : Yes\nForced : No\n\n\n\n\n[/B][/CODE]\n\n[URL=http://someimage.com/KoZbbHO][IMG]http://t1.someimage.com/KoZbbHO.jpg[/IMG][/URL] [URL=http://someimage.com/WKekrdn][IMG]http://t1.someimage.com/WKekrdn.jpg[/IMG][/URL] [URL=http://someimage.com/oRqu27L][IMG]http://t1.someimage.com/oRqu27L.jpg[/IMG][/URL] [URL=http://someimage.com/LLPjOJy][IMG]http://t1.someimage.com/LLPjOJy.jpg[/IMG][/URL] [URL=http://someimage.com/a98LNSS][IMG]http://t1.someimage.com/a98LNSS.jpg[/IMG][/URL] [URL=http://someimage.com/5bbtPsE][IMG]http://t1.someimage.com/5bbtPsE.jpg[/IMG][/URL] [URL=http://someimage.com/BXxArNf][IMG]http://t1.someimage.com/BXxArNf.jpg[/IMG][/URL] [URL=http://someimage.com/K1tlP5b][IMG]http://t1.someimage.com/K1tlP5b.jpg[/IMG][/URL] [URL=http://someimage.com/vbXuLbi][IMG]http://t1.someimage.com/vbXuLbi.jpg[/IMG][/URL] [URL=http://someimage.com/rqKMTlW][IMG]http://t1.someimage.com/rqKMTlW.jpg[/IMG][/URL] [URL=http://someimage.com/lpcokKD][IMG]http://t1.someimage.com/lpcokKD.jpg[/IMG][/URL] [URL=http://someimage.com/1ne88qu][IMG]http://t1.someimage.com/1ne88qu.jpg[/IMG][/URL] [URL=http://someimage.com/df5Tide][IMG]http://t1.someimage.com/df5Tide.jpg[/IMG][/URL] [URL=http://someimage.com/ELTwXqC][IMG]http://t1.someimage.com/ELTwXqC.jpg[/IMG][/URL] [URL=http://someimage.com/owrHitT][IMG]http://t1.someimage.com/owrHitT.jpg[/IMG][/URL] \n\n[COLOR=&quot;Red&quot;]\n\n[COLOR=&quot;DarkGreen&quot;][B]\n[SIZE=&quot;6&quot;]Super Seeding,Enjoy!!!!!!!!![/SIZE][/B][/COLOR]\n\n[IMG]http://i.imgur.com/OxT4bv8.png[/IMG][/CENTER]","torrent":{"xt":"urn:btih:dce984c4b9541352dc6b4c2f87b832502d50029d","amp;dn":"Hunterr+2015+720p+DVDRipx264+mHD-AC3+Dolby+Digital+5.1%5BTeam+Tell","amp;tr":["udp%3A%2F%2Ftracker.openbittorrent.com%3A80","udp%3A%2F%2Fopen.demonii.com%3A1337","udp%3A%2F%2Ftracker.coppersurfer.tk%3A6969","udp%3A%2F%2Fexodus.desync.com%3A6969"],"infoHash":"dce984c4b9541352dc6b4c2f87b832502d50029d","infoHashBuffer":{"type":"Buffer","data":[220,233,132,196,185,84,19,82,220,107,76,47,135,184,50,80,45,80,2,157]},"announce":[],"urlList":[]}}